<svg width="308" height="41" viewBox="0 0 308 41" fill="none" xmlns="http://www.w3.org/2000/svg">
<rect x="0.240234" y="4.5" width="32" height="32" rx="16" fill="#030303"/>
<path d="M47.0622 33V9.2H57.3642C59.4949 9.2 61.3309 9.55133 62.8722 10.254C64.4136 10.934 65.6036 11.92 66.4422 13.212C67.2809 14.504 67.7002 16.0453 67.7002 17.836C67.7002 19.604 67.2809 21.134 66.4422 22.426C65.6036 23.6953 64.4136 24.67 62.8722 25.35C61.3309 26.03 59.4949 26.37 57.3642 26.37H50.1222L52.5702 23.956V33H47.0622ZM62.1922 33L56.2422 24.364H62.1242L68.1422 33H62.1922ZM52.5702 24.568L50.1222 21.984H57.0582C58.7582 21.984 60.0276 21.6213 60.8662 20.896C61.7049 20.148 62.1242 19.128 62.1242 17.836C62.1242 16.5213 61.7049 15.5013 60.8662 14.776C60.0276 14.0507 58.7582 13.688 57.0582 13.688H50.1222L52.5702 11.07V24.568ZM82.7442 33V29.43L82.4042 28.648V22.256C82.4042 21.1227 82.0528 20.2387 81.3502 19.604C80.6702 18.9693 79.6162 18.652 78.1882 18.652C77.2135 18.652 76.2502 18.8107 75.2982 19.128C74.3688 19.4227 73.5755 19.8307 72.9182 20.352L71.0142 16.646C72.0115 15.9433 73.2128 15.3993 74.6182 15.014C76.0235 14.6287 77.4515 14.436 78.9022 14.436C81.6902 14.436 83.8548 15.0933 85.3962 16.408C86.9375 17.7227 87.7082 19.774 87.7082 22.562V33H82.7442ZM77.1682 33.272C75.7402 33.272 74.5162 33.034 73.4962 32.558C72.4762 32.0593 71.6942 31.3907 71.1502 30.552C70.6062 29.7133 70.3342 28.7727 70.3342 27.73C70.3342 26.642 70.5948 25.69 71.1162 24.874C71.6602 24.058 72.5102 23.4233 73.6662 22.97C74.8222 22.494 76.3295 22.256 78.1882 22.256H83.0502V25.35H78.7662C77.5195 25.35 76.6582 25.554 76.1822 25.962C75.7288 26.37 75.5022 26.88 75.5022 27.492C75.5022 28.172 75.7628 28.716 76.2842 29.124C76.8282 29.5093 77.5648 29.702 78.4942 29.702C79.3782 29.702 80.1715 29.498 80.8742 29.09C81.5768 28.6593 82.0868 28.036 82.4042 27.22L83.2202 29.668C82.8348 30.8467 82.1322 31.742 81.1122 32.354C80.0922 32.966 78.7775 33.272 77.1682 33.272ZM103.321 33.272C101.779 33.272 100.431 32.932 99.2745 32.252C98.1185 31.572 97.2119 30.5407 96.5545 29.158C95.9199 27.7527 95.6025 25.9847 95.6025 23.854C95.6025 21.7007 95.9085 19.9327 96.5205 18.55C97.1325 17.1673 98.0165 16.136 99.1725 15.456C100.329 14.776 101.711 14.436 103.321 14.436C105.043 14.436 106.585 14.8327 107.945 15.626C109.327 16.3967 110.415 17.4847 111.209 18.89C112.025 20.2953 112.433 21.95 112.433 23.854C112.433 25.7807 112.025 27.4467 111.209 28.852C110.415 30.2573 109.327 31.3453 107.945 32.116C106.585 32.8867 105.043 33.272 103.321 33.272ZM92.5085 39.596V14.708H97.5745V18.448L97.4725 23.888L97.8125 29.294V39.596H92.5085ZM102.403 28.92C103.287 28.92 104.069 28.716 104.749 28.308C105.451 27.9 106.007 27.322 106.415 26.574C106.845 25.8033 107.061 24.8967 107.061 23.854C107.061 22.7887 106.845 21.882 106.415 21.134C106.007 20.386 105.451 19.808 104.749 19.4C104.069 18.992 103.287 18.788 102.403 18.788C101.519 18.788 100.725 18.992 100.023 19.4C99.3199 19.808 98.7645 20.386 98.3565 21.134C97.9485 21.882 97.7445 22.7887 97.7445 23.854C97.7445 24.8967 97.9485 25.8033 98.3565 26.574C98.7645 27.322 99.3199 27.9 100.023 28.308C100.725 28.716 101.519 28.92 102.403 28.92ZM115.983 33V14.708H121.287V33H115.983ZM118.635 12.158C117.66 12.158 116.867 11.8747 116.255 11.308C115.643 10.7413 115.337 10.0387 115.337 9.2C115.337 8.36133 115.643 7.65867 116.255 7.092C116.867 6.52533 117.66 6.242 118.635 6.242C119.61 6.242 120.403 6.514 121.015 7.058C121.627 7.57933 121.933 8.25933 121.933 9.098C121.933 9.982 121.627 10.7187 121.015 11.308C120.426 11.8747 119.632 12.158 118.635 12.158ZM134.064 33.272C132.341 33.272 130.788 32.8867 129.406 32.116C128.023 31.3227 126.924 30.2233 126.108 28.818C125.314 27.4127 124.918 25.758 124.918 23.854C124.918 21.9273 125.314 20.2613 126.108 18.856C126.924 17.4507 128.023 16.3627 129.406 15.592C130.788 14.8213 132.341 14.436 134.064 14.436C135.605 14.436 136.954 14.776 138.11 15.456C139.266 16.136 140.161 17.1673 140.796 18.55C141.43 19.9327 141.748 21.7007 141.748 23.854C141.748 25.9847 141.442 27.7527 140.83 29.158C140.218 30.5407 139.334 31.572 138.178 32.252C137.044 32.932 135.673 33.272 134.064 33.272ZM134.982 28.92C135.843 28.92 136.625 28.716 137.328 28.308C138.03 27.9 138.586 27.322 138.994 26.574C139.424 25.8033 139.64 24.8967 139.64 23.854C139.64 22.7887 139.424 21.882 138.994 21.134C138.586 20.386 138.03 19.808 137.328 19.4C136.625 18.992 135.843 18.788 134.982 18.788C134.098 18.788 133.304 18.992 132.602 19.4C131.899 19.808 131.332 20.386 130.902 21.134C130.494 21.882 130.29 22.7887 130.29 23.854C130.29 24.8967 130.494 25.8033 130.902 26.574C131.332 27.322 131.899 27.9 132.602 28.308C133.304 28.716 134.098 28.92 134.982 28.92ZM139.776 33V29.26L139.878 23.82L139.538 18.414V7.772H144.842V33H139.776ZM159.754 33V9.2H170.056C172.186 9.2 174.022 9.55133 175.564 10.254C177.105 10.934 178.295 11.92 179.134 13.212C179.972 14.504 180.392 16.0453 180.392 17.836C180.392 19.604 179.972 21.134 179.134 22.426C178.295 23.6953 177.105 24.67 175.564 25.35C174.022 26.03 172.186 26.37 170.056 26.37H162.814L165.262 23.956V33H159.754ZM174.884 33L168.934 24.364H174.816L180.834 33H174.884ZM165.262 24.568L162.814 21.984H169.75C171.45 21.984 172.719 21.6213 173.558 20.896C174.396 20.148 174.816 19.128 174.816 17.836C174.816 16.5213 174.396 15.5013 173.558 14.776C172.719 14.0507 171.45 13.688 169.75 13.688H162.814L165.262 11.07V24.568ZM192.1 33.272C190.581 33.272 189.221 32.9773 188.02 32.388C186.841 31.7987 185.923 30.9033 185.266 29.702C184.608 28.478 184.28 26.9253 184.28 25.044V14.708H189.584V24.262C189.584 25.7807 189.901 26.9027 190.536 27.628C191.193 28.3307 192.111 28.682 193.29 28.682C194.106 28.682 194.831 28.512 195.466 28.172C196.1 27.8093 196.599 27.2653 196.962 26.54C197.324 25.792 197.506 24.8627 197.506 23.752V14.708H202.81V33H197.778V27.968L198.696 29.43C198.084 30.6993 197.177 31.6627 195.976 32.32C194.797 32.9547 193.505 33.272 192.1 33.272ZM218.841 14.436C220.292 14.436 221.584 14.7307 222.717 15.32C223.873 15.8867 224.78 16.7707 225.437 17.972C226.095 19.1507 226.423 20.6693 226.423 22.528V33H221.119V23.344C221.119 21.8707 220.791 20.7827 220.133 20.08C219.499 19.3773 218.592 19.026 217.413 19.026C216.575 19.026 215.815 19.2073 215.135 19.57C214.478 19.91 213.957 20.4427 213.571 21.168C213.209 21.8933 213.027 22.8227 213.027 23.956V33H207.723V14.708H212.789V19.774L211.837 18.244C212.495 17.02 213.435 16.0793 214.659 15.422C215.883 14.7647 217.277 14.436 218.841 14.436ZM242.349 14.436C243.8 14.436 245.092 14.7307 246.225 15.32C247.381 15.8867 248.288 16.7707 248.945 17.972C249.603 19.1507 249.931 20.6693 249.931 22.528V33H244.627V23.344C244.627 21.8707 244.299 20.7827 243.641 20.08C243.007 19.3773 242.1 19.026 240.921 19.026C240.083 19.026 239.323 19.2073 238.643 19.57C237.986 19.91 237.465 20.4427 237.079 21.168C236.717 21.8933 236.535 22.8227 236.535 23.956V33H231.231V14.708H236.297V19.774L235.345 18.244C236.003 17.02 236.943 16.0793 238.167 15.422C239.391 14.7647 240.785 14.436 242.349 14.436ZM263.95 33.272C261.864 33.272 260.028 32.864 258.442 32.048C256.878 31.232 255.665 30.1213 254.804 28.716C253.942 27.288 253.512 25.6673 253.512 23.854C253.512 22.018 253.931 20.3973 254.77 18.992C255.631 17.564 256.798 16.4533 258.272 15.66C259.745 14.844 261.411 14.436 263.27 14.436C265.06 14.436 266.67 14.8213 268.098 15.592C269.548 16.34 270.693 17.428 271.532 18.856C272.37 20.2613 272.79 21.95 272.79 23.922C272.79 24.126 272.778 24.364 272.756 24.636C272.733 24.8853 272.71 25.1233 272.688 25.35H257.83V22.256H269.9L267.86 23.174C267.86 22.222 267.667 21.3947 267.282 20.692C266.896 19.9893 266.364 19.4453 265.684 19.06C265.004 18.652 264.21 18.448 263.304 18.448C262.397 18.448 261.592 18.652 260.89 19.06C260.21 19.4453 259.677 20.0007 259.292 20.726C258.906 21.4287 258.714 22.2673 258.714 23.242V24.058C258.714 25.0553 258.929 25.9393 259.36 26.71C259.813 27.458 260.436 28.036 261.23 28.444C262.046 28.8293 262.998 29.022 264.086 29.022C265.06 29.022 265.91 28.8747 266.636 28.58C267.384 28.2853 268.064 27.8433 268.676 27.254L271.498 30.314C270.659 31.266 269.605 32.0027 268.336 32.524C267.066 33.0227 265.604 33.272 263.95 33.272ZM276.321 33V14.708H281.387V19.876L280.673 18.38C281.217 17.088 282.09 16.1133 283.291 15.456C284.492 14.776 285.954 14.436 287.677 14.436V19.332C287.45 19.3093 287.246 19.298 287.065 19.298C286.884 19.2753 286.691 19.264 286.487 19.264C285.036 19.264 283.858 19.6833 282.951 20.522C282.067 21.338 281.625 22.6187 281.625 24.364V33H276.321ZM297.118 33.272C295.554 33.272 294.046 33.0907 292.596 32.728C291.168 32.3427 290.034 31.8667 289.196 31.3L290.964 27.492C291.802 28.0133 292.788 28.444 293.922 28.784C295.078 29.1013 296.211 29.26 297.322 29.26C298.546 29.26 299.407 29.1127 299.906 28.818C300.427 28.5233 300.688 28.1153 300.688 27.594C300.688 27.1633 300.484 26.846 300.076 26.642C299.69 26.4153 299.169 26.2453 298.512 26.132C297.854 26.0187 297.129 25.9053 296.336 25.792C295.565 25.6787 294.783 25.5313 293.99 25.35C293.196 25.146 292.471 24.8513 291.814 24.466C291.156 24.0807 290.624 23.5593 290.216 22.902C289.83 22.2447 289.638 21.3947 289.638 20.352C289.638 19.196 289.966 18.176 290.624 17.292C291.304 16.408 292.278 15.7167 293.548 15.218C294.817 14.6967 296.336 14.436 298.104 14.436C299.35 14.436 300.62 14.572 301.912 14.844C303.204 15.116 304.28 15.5127 305.142 16.034L303.374 19.808C302.49 19.2867 301.594 18.9353 300.688 18.754C299.804 18.55 298.942 18.448 298.104 18.448C296.925 18.448 296.064 18.6067 295.52 18.924C294.976 19.2413 294.704 19.6493 294.704 20.148C294.704 20.6013 294.896 20.9413 295.282 21.168C295.69 21.3947 296.222 21.576 296.88 21.712C297.537 21.848 298.251 21.9727 299.022 22.086C299.815 22.1767 300.608 22.324 301.402 22.528C302.195 22.732 302.909 23.0267 303.544 23.412C304.201 23.7747 304.734 24.2847 305.142 24.942C305.55 25.5767 305.754 26.4153 305.754 27.458C305.754 28.5913 305.414 29.6 304.734 30.484C304.054 31.3453 303.068 32.0253 301.776 32.524C300.506 33.0227 298.954 33.272 297.118 33.272Z" fill="black"/>
</svg>
